<svg id="icn_upload" xmlns="http://www.w3.org/2000/svg" width="95" height="126" viewBox="0 0 95 126">
  <g id="noun_Image_153318">
    <g id="Group">
      <g id="Shape">
        <path id="Path_58" data-name="Path 58" d="M27.941,67.2a5.6,5.6,0,1,1,5.588-5.6A5.594,5.594,0,0,1,27.941,67.2Zm0-2.8a2.8,2.8,0,1,0-2.794-2.8A2.8,2.8,0,0,0,27.941,64.4Zm6.476,21.562,2.077,3.067a1.765,1.765,0,0,0,3.142.008L51.292,71.826c1.731-2.556,4.541-2.552,6.275.008L77.184,100.8l-59.022-.092L28.14,85.974C29.876,83.411,32.689,83.41,34.417,85.962ZM57.827,0h.811A7.73,7.73,0,0,1,63.4,1.979L93.025,31.666A7.747,7.747,0,0,1,95,36.439V120.4a5.586,5.586,0,0,1-5.588,5.6H5.588A5.6,5.6,0,0,1,0,120.4V5.6A5.586,5.586,0,0,1,5.588,0Zm6.709,33.609a3.073,3.073,0,0,1-3.066-3.072V5.446c0-.766.44-.946.981-.4L89.977,32.626c.542.543.354.983-.4.983ZM5.872,2.8A3.066,3.066,0,0,0,2.794,5.867V120.133A3.072,3.072,0,0,0,5.872,123.2H89.128a3.066,3.066,0,0,0,3.078-3.067V37.756a1.4,1.4,0,0,0-1.386-1.4H64.264a5.59,5.59,0,0,1-5.587-5.6V4.186A1.392,1.392,0,0,0,57.291,2.8Z" fill="#4a4a4a"/>
      </g>
    </g>
  </g>
</svg>
